<svg width="200" height="197" viewBox="0 0 200 197" fill="none" xmlns="http://www.w3.org/2000/svg">
<path fill-rule="evenodd" clip-rule="evenodd" d="M136.373 0.820619C135.874 3.49466 135.088 6.06755 134.048 8.50597C168.003 22.0406 192 55.2179 192 94V97C192 147.81 150.81 189 100 189C49.1898 189 8 147.81 8 97V94C8 55.2179 31.9966 22.0406 65.9518 8.50597C64.9116 6.06755 64.1257 3.49466 63.6274 0.820618C26.3834 15.3697 0 51.6037 0 94V97C0 152.228 44.7715 197 100 197C155.228 197 200 152.228 200 97V94C200 51.6037 173.617 15.3697 136.373 0.820619Z" fill="#FF0000"/>
</svg>
